{
    "asset" : {
        "generator" : "Khronos glTF Blender I/O v1.6.16",
        "version" : "2.0"
    },
    "scene" : 0,
    "scenes" : [
        {
            "name" : "Scene",
            "nodes" : [
                0,
                1
            ]
        }
    ],
    "nodes" : [
        {
            "mesh" : 0,
            "name" : "Cube.004",
            "rotation" : [
                0,
                0,
                -0.004588820971548557,
                0.9999895691871643
            ],
            "scale" : [
                1.8002755641937256,
                1.1978157758712769,
                1.2759448289871216
            ],
            "translation" : [
                -0.1977543830871582,
                1.0173258781433105,
                0
            ]
        },
        {
            "mesh" : 1,
            "name" : "Cube.005",
            "scale" : [
                0.9166309833526611,
                0.08423307538032532,
                0.1025175154209137
            ],
            "translation" : [
                -0.19949769973754883,
                -1.280888319015503,
                1.228365182876587
            ]
        }
    ],
    "materials" : [
        {
            "doubleSided" : true,
            "name" : "Bote.001",
            "pbrMetallicRoughness" : {
                "baseColorTexture" : {
                    "index" : 0
                },
                "metallicFactor" : 0,
                "roughnessFactor" : 0.5
            }
        }
    ],
    "meshes" : [
        {
            "name" : "Cube.004",
            "primitives" : [
                {
                    "attributes" : {
                        "POSITION" : 0,
                        "NORMAL" : 1,
                        "TEXCOORD_0" : 2
                    },
                    "indices" : 3,
                    "material" : 0
                }
            ]
        },
        {
            "name" : "Cube.005",
            "primitives" : [
                {
                    "attributes" : {
                        "POSITION" : 4,
                        "NORMAL" : 5,
                        "TEXCOORD_0" : 6
                    },
                    "indices" : 7,
                    "material" : 0
                }
            ]
        }
    ],
    "textures" : [
        {
            "sampler" : 0,
            "source" : 0
        }
    ],
    "images" : [
        {
            "bufferView" : 4,
            "mimeType" : "image/jpeg",
            "name" : "2qQrL"
        }
    ],
    "accessors" : [
        {
            "bufferView" : 0,
            "componentType" : 5126,
            "count" : 896,
            "max" : [
                0.6026709675788879,
                0.2409205436706543,
                1.3859951496124268
            ],
            "min" : [
                -0.6026709079742432,
                -0.22939282655715942,
                -1.3859951496124268
            ],
            "type" : "VEC3"
        },
        {
            "bufferView" : 1,
            "componentType" : 5126,
            "count" : 896,
            "type" : "VEC3"
        },
        {
            "bufferView" : 2,
            "componentType" : 5126,
            "count" : 896,
            "type" : "VEC2"
        },
        {
            "bufferView" : 3,
            "componentType" : 5123,
            "count" : 1860,
            "type" : "SCALAR"
        },
        {
            "bufferView" : 5,
            "componentType" : 5126,
            "count" : 434,
            "max" : [
                1.1525214910507202,
                29.426734924316406,
                6.5887556076049805
            ],
            "min" : [
                -1.1487184762954712,
                -1,
                -30.552589416503906
            ],
            "type" : "VEC3"
        },
        {
            "bufferView" : 6,
            "componentType" : 5126,
            "count" : 434,
            "type" : "VEC3"
        },
        {
            "bufferView" : 7,
            "componentType" : 5126,
            "count" : 434,
            "type" : "VEC2"
        },
        {
            "bufferView" : 8,
            "componentType" : 5123,
            "count" : 924,
            "type" : "SCALAR"
        }
    ],
    "bufferViews" : [
        {
            "buffer" : 0,
            "byteLength" : 10752,
            "byteOffset" : 0
        },
        {
            "buffer" : 0,
            "byteLength" : 10752,
            "byteOffset" : 10752
        },
        {
            "buffer" : 0,
            "byteLength" : 7168,
            "byteOffset" : 21504
        },
        {
            "buffer" : 0,
            "byteLength" : 3720,
            "byteOffset" : 28672
        },
        {
            "buffer" : 0,
            "byteLength" : 215164,
            "byteOffset" : 32392
        },
        {
            "buffer" : 0,
            "byteLength" : 5208,
            "byteOffset" : 247556
        },
        {
            "buffer" : 0,
            "byteLength" : 5208,
            "byteOffset" : 252764
        },
        {
            "buffer" : 0,
            "byteLength" : 3472,
            "byteOffset" : 257972
        },
        {
            "buffer" : 0,
            "byteLength" : 1848,
            "byteOffset" : 261444
        }
    ],
    "samplers" : [
        {
            "magFilter" : 9729,
            "minFilter" : 9987
        }
    ],
    "buffers" : [
        {
            "byteLength" : 263292,
            "uri" : "data:application/octet-stream;base64,"
        }
    ]
}
